<svg id="图层_2" data-name="图层 2" xmlns="http://www.w3.org/2000/svg" viewBox="0 0 293.83 161.24"><defs><style>.cls-1{fill:#e71f19;}.cls-2{font-size:150px;fill:#e83818;font-family:ArialRoundedMTBold, Arial Rounded MT Bold;opacity:0.99;}</style></defs><title>logo</title><path class="cls-1" d="M148,260.67s4.85,19.71,18.1,26.82v44.92s1,5.81,5.81,3.55,2.79-2.42,2.79-2.42l.44-3.21v-22.6l1.14.24v26.3s1.21,3,5.57,2.21,2.18-6.09,2.18-6.09V288s12-6.06,18.91-28.35c0,0-8.49,14.78-16.24,17.81,0,0-12.61,6.79-22.54-.24C164.2,277.19,153.21,269,148,260.67Z" transform="translate(-27.43 -208.72)"/><circle class="cls-1" cx="147.68" cy="61.31" r="7.51"/><path class="cls-1" d="M147.23,256.14s-3.71-19.63,9.7-22.13c0,0,15.83-1,18.58,12,0,0,4.36-13.76,16.72-12,0,0,15.19-.39,11.72,21.59,0,0-1.38-15.6-11-15.11,0,0-10.18-.16-13.17,4.93,0,0-2.62,1.94-4.18,6.7A17.26,17.26,0,0,0,164.68,241s-9.13-3.24-14.14,4C150.54,245,148.69,246.45,147.23,256.14Z" transform="translate(-27.43 -208.72)"/><text class="cls-2" transform="translate(0 129.6)">H</text><text class="cls-2" transform="translate(190.63 129.6)">V</text></svg>